<svg xmlns="http://www.w3.org/2000/svg" version="1.1" xmlns:xlink="http://www.w3.org/1999/xlink" xmlns:svgjs="http://svgjs.com/svgjs" width="20px" height="512" x="0" y="0" viewBox="0 0 24 24" style="enable-background:new 0 0 512 512" xml:space="preserve" class=""><g><circle cx="12" cy="12" r="10" fill="#e6e6e6" data-original="#e6e6e6" class=""></circle><path d="M15.71 14.29a.996.996 0 0 1-.71 1.7c-.26 0-.51-.1-.71-.29L12 13.41 9.71 15.7c-.2.2-.45.29-.71.29s-.51-.1-.71-.29a.996.996 0 0 1 0-1.41L10.58 12 8.29 9.71A.996.996 0 1 1 9.7 8.3l2.29 2.29 2.29-2.29a.996.996 0 1 1 1.41 1.41L13.4 12l2.29 2.29z" fill="#000000" data-original="#000000" class=""></path></g></svg>
