<svg xmlns="http://www.w3.org/2000/svg" version="1.1" xmlns:xlink="http://www.w3.org/1999/xlink" xmlns:svgjs="http://svgjs.com/svgjs" width="16px" height="16px" x="0" y="0" viewBox="0 0 512 512" style="enable-background:new 0 0 512 512" xml:space="preserve" class=""><g><path fill="#fbad18" d="M447.846 126.762 272 25.238a32 32 0 0 0-32 0L64.154 126.762a32 32 0 0 0-16 27.713v203.05a32 32 0 0 0 16 27.713L240 486.762a32 32 0 0 0 32 0l175.846-101.524a32 32 0 0 0 16-27.713v-203.05a32 32 0 0 0-16-27.713ZM256 336a80 80 0 1 1 80-80 80 80 0 0 1-80 80Z" data-original="#738ca0" class=""></path><path fill="#fbad18" d="M256 475.049a16.024 16.024 0 0 1-8-2.143L72.154 371.381a16.043 16.043 0 0 1-8-13.856v-203.05a16.043 16.043 0 0 1 8-13.856L248 39.094a16 16 0 0 1 16 0l175.846 101.525a16.043 16.043 0 0 1 8 13.856v203.05a16.043 16.043 0 0 1-8 13.856L264 472.906a16.024 16.024 0 0 1-8 2.143Zm0-331.03A111.991 111.991 0 1 0 368 256a112.111 112.111 0 0 0-112-111.981Z" data-original="#96aab9" class=""></path><path fill="#fbad18" d="M256 384a8 8 0 0 1 0-16 112.127 112.127 0 0 0 112-112 8 8 0 0 1 16 0 128.144 128.144 0 0 1-128 128ZM72.154 365.525a8 8 0 0 1-8-8v-203.05a16.042 16.042 0 0 1 8-13.856L248 39.094a8 8 0 0 1 8 13.857L80.154 154.475v203.05a8 8 0 0 1-8 8Z" data-original="#d7e6f0" class=""></path><path fill="#fbad18" d="M199.431 199.431a80 80 0 0 1 113.138 0l22.59-22.59a111.948 111.948 0 1 0-158.318 158.318l22.59-22.59a80 80 0 0 1 0-113.138Z" data-original="#5d7991" class=""></path></g></svg>