<svg xmlns="http://www.w3.org/2000/svg" version="1.1" xmlns:xlink="http://www.w3.org/1999/xlink" xmlns:svgjs="http://svgjs.com/svgjs" width="16px" height="16px" x="0" y="0" viewBox="0 0 512 512" style="enable-background:new 0 0 512 512" xml:space="preserve" class=""><g><path d="M221 93.5H81c-11.028 0-20 8.972-20 20v130c0 11.028 8.972 20 20 20h82.865c-9.372 45.993-50.458 80-97.865 80a5 5 0 0 0-5 5v65a5 5 0 0 0 5 5c96.495 0 175-78.505 175-175v-130c0-11.028-8.972-20-20-20zm10 150c0 89.31-71.321 162.274-160 164.926v-55.039a109.657 109.657 0 0 0 67.293-27.052c19.792-17.335 32.74-41.174 36.461-67.125a4.997 4.997 0 0 0-4.949-5.71H81c-5.514 0-10-4.486-10-10v-130c0-5.514 4.486-10 10-10h140c5.514 0 10 4.486 10 10zm200-150H291c-11.028 0-20 8.972-20 20v130c0 11.028 8.972 20 20 20h82.869c-9.372 45.993-50.459 80-97.869 80a5 5 0 0 0-5 5v65a5 5 0 0 0 5 5c96.495 0 175-78.505 175-175v-130c0-11.028-8.971-20-20-20zm10 150c0 89.31-71.321 162.274-160 164.926v-55.039a109.66 109.66 0 0 0 67.295-27.052c19.793-17.335 32.742-41.174 36.463-67.125a5 5 0 0 0-4.949-5.71H291c-5.514 0-10-4.486-10-10v-130c0-5.514 4.486-10 10-10h140c5.514 0 10 4.486 10 10z" fill="#000000" data-original="#000000" class=""></path></g></svg>