<?xml version="1.0" encoding="utf-8"?><!-- Uploaded to: SVG Repo, www.svgrepo.com, Generator: SVG Repo Mixer Tools -->
<svg width="800px" height="800px" viewBox="0 0 24 24" fill="none" xmlns="http://www.w3.org/2000/svg">
<path fill-rule="evenodd" clip-rule="evenodd" d="M9.25763 5.96157C7.39525 6.0632 5.90762 7.58941 5.80905 9.49957C4.56365 10.9215 4.56365 13.0776 5.80905 14.4996C5.90423 16.4135 7.39634 17.943 9.2625 18.0396C10.6482 19.3187 12.7518 19.3187 14.1375 18.0396C16.0037 17.943 17.4958 16.4135 17.591 14.4996C18.8364 13.0776 18.8364 10.9215 17.591 9.49957C17.4924 7.58941 16.0048 6.0632 14.1424 5.96157C12.7537 4.67948 10.6454 4.67948 9.25665 5.96157H9.25763Z" stroke="#000000" stroke-width="1.5" stroke-linecap="round" stroke-linejoin="round"/>
<path fill-rule="evenodd" clip-rule="evenodd" d="M13.4063 11.9995C13.4063 12.966 12.6423 13.7495 11.7 13.7495C10.7577 13.7495 9.99375 12.966 9.99375 11.9995C9.99375 11.033 10.7577 10.2495 11.7 10.2495C12.6423 10.2495 13.4063 11.033 13.4063 11.9995Z" stroke="#000000" stroke-width="1.5" stroke-linecap="round" stroke-linejoin="round"/>
</svg>