<svg xmlns="http://www.w3.org/2000/svg" version="1.1" xmlns:xlink="http://www.w3.org/1999/xlink" xmlns:svgjs="http://svgjs.com/svgjs" width="16px" height="16px" x="0" y="0" viewBox="0 0 512 512" style="enable-background:new 0 0 512 512" xml:space="preserve" class=""><g><path fill="#fcab35" d="M503.076 225.159a27.89 27.89 0 0 0-15.635-48.11l-138.108-16.971a11.246 11.246 0 0 1-9.237-6.713L281.3 27.259A27.625 27.625 0 0 0 256 11.2a27.626 27.626 0 0 0-25.3 16.06l-58.788 126.09a11.312 11.312 0 0 1-9.247 6.728L24.532 177.049A27.891 27.891 0 0 0 8.926 225.16l101.763 94.906a11.263 11.263 0 0 1 3.527 10.842L87.644 467.51a27.858 27.858 0 0 0 40.949 29.731l121.728-67.464a11.182 11.182 0 0 1 11.381.012l121.712 67.455a27.892 27.892 0 0 0 40.913-29.744l-26.541-136.59a11.262 11.262 0 0 1 3.525-10.842zm-121.135 108.83 26.541 136.6a11.751 11.751 0 0 1-17.249 12.539l-121.7-67.448a27.279 27.279 0 0 0-27.06 0l-121.709 67.445a11.768 11.768 0 0 1-17.274-12.543l26.571-136.594a27.4 27.4 0 0 0-8.36-25.725L19.936 213.355A11.75 11.75 0 0 1 26.5 193.07l138.135-16.97a27.459 27.459 0 0 0 21.9-15.915l58.8-126.1a11.816 11.816 0 0 1 21.339 0l58.791 126.094a27.363 27.363 0 0 0 21.902 15.921l138.107 16.97a11.749 11.749 0 0 1 6.592 20.284L390.3 308.265a27.393 27.393 0 0 0-8.359 25.724z" data-original="#fcab35" class=""></path></g></svg>